<svg width="148" height="41" fill="none" xmlns="http://www.w3.org/2000/svg"><path d="M7.123 14.981c1.768 0 3.264.657 4.488 1.972l-1.19 1.105c-.895-.895-1.995-1.343-3.298-1.343-1.19 0-2.193.414-3.009 1.241-.805.816-1.207 1.847-1.207 3.094 0 1.258.402 2.295 1.207 3.111.816.816 1.819 1.224 3.009 1.224 1.326 0 2.425-.448 3.298-1.343l1.19 1.105c-1.224 1.315-2.72 1.972-4.488 1.972-1.677 0-3.105-.59-4.284-1.768-1.179-1.19-1.768-2.624-1.768-4.301s.59-3.105 1.768-4.284c1.179-1.19 2.607-1.785 4.284-1.785zm12.194 5.032h-.68c-.964 0-1.683.295-2.16.884-.475.59-.713 1.377-.713 2.363V27h-1.7v-8.5h1.156l.187 2.074c.68-1.462 1.887-2.193 3.62-2.193h.29v1.632zm5.876-1.632c.906 0 1.683.21 2.329.629.646.42 1.127 1.009 1.445 1.768.158.351.249.765.272 1.241.022.465-.017.856-.12 1.173h-6.476c0 .725.243 1.303.73 1.734.5.42 1.14.629 1.922.629a5.26 5.26 0 002.737-.748l.918.986c-1.145.873-2.363 1.309-3.655 1.309-1.304 0-2.363-.408-3.18-1.224-.815-.816-1.223-1.859-1.223-3.128 0-1.235.39-2.272 1.173-3.111.793-.839 1.836-1.258 3.128-1.258zm.017 1.547c-.703 0-1.287.215-1.751.646-.465.42-.714.93-.748 1.53h4.879c0-.295-.068-.572-.204-.833a2.137 2.137 0 00-.85-.969c-.374-.25-.816-.374-1.326-.374zM39.77 27h-1.156l-.102-1.564c-.318.51-.754.918-1.31 1.224a3.82 3.82 0 01-1.818.442c-1.202 0-2.205-.42-3.01-1.258-.793-.85-1.19-1.881-1.19-3.094 0-1.224.397-2.255 1.19-3.094.805-.85 1.808-1.275 3.01-1.275a3.71 3.71 0 011.819.459c.555.306.991.714 1.309 1.224l.102-1.564h1.156V27zm-6.103-2.295a2.58 2.58 0 001.87.765 2.58 2.58 0 001.87-.765c.532-.521.799-1.173.799-1.955 0-.793-.267-1.445-.8-1.955a2.552 2.552 0 00-1.87-.782 2.55 2.55 0 00-1.87.782c-.52.51-.781 1.162-.781 1.955 0 .793.26 1.445.782 1.955zm11.497-4.573V27h-1.7v-6.868h-1.173V18.5h1.173v-2.856h1.7V18.5h1.19v1.632h-1.19zm7.322-1.751c.906 0 1.683.21 2.329.629.646.42 1.127 1.009 1.445 1.768.158.351.249.765.272 1.241.022.465-.017.856-.12 1.173h-6.476c0 .725.243 1.303.73 1.734.5.42 1.14.629 1.922.629.986 0 1.898-.25 2.737-.748l.918.986c-1.145.873-2.363 1.309-3.655 1.309-1.304 0-2.363-.408-3.18-1.224-.815-.816-1.223-1.859-1.223-3.128 0-1.235.39-2.272 1.173-3.111.793-.839 1.836-1.258 3.128-1.258zm.017 1.547c-.703 0-1.287.215-1.751.646-.465.42-.714.93-.748 1.53h4.879c0-.295-.068-.572-.204-.833a2.135 2.135 0 00-.85-.969c-.374-.25-.816-.374-1.326-.374zM67.063 27h-1.156l-.102-1.564c-.318.51-.754.918-1.31 1.224a3.82 3.82 0 01-1.818.442c-1.202 0-2.205-.42-3.01-1.258-.793-.85-1.19-1.881-1.19-3.094 0-1.224.397-2.255 1.19-3.094.805-.85 1.808-1.275 3.01-1.275.555 0 1.07.13 1.547.391.487.25.867.584 1.139 1.003V15.1h1.7V27zm-6.103-2.295a2.58 2.58 0 001.87.765 2.58 2.58 0 001.87-.765c.532-.521.799-1.173.799-1.955 0-.793-.267-1.445-.8-1.955a2.552 2.552 0 00-1.87-.782 2.55 2.55 0 00-1.87.782c-.52.51-.781 1.162-.781 1.955 0 .793.26 1.445.782 1.955zM77.372 15.1v4.675c.272-.42.646-.754 1.122-1.003a3.266 3.266 0 011.564-.391c1.201 0 2.199.425 2.992 1.275.805.839 1.207 1.87 1.207 3.094 0 1.213-.402 2.244-1.207 3.094-.793.839-1.79 1.258-2.992 1.258a3.82 3.82 0 01-1.819-.442 3.493 3.493 0 01-1.309-1.224L76.828 27h-1.156V15.1h1.7zm4.42 5.695a2.552 2.552 0 00-1.87-.782c-.725 0-1.354.26-1.887.782-.521.51-.782 1.162-.782 1.955 0 .782.26 1.434.782 1.955.533.51 1.162.765 1.887.765a2.58 2.58 0 001.87-.765c.522-.51.782-1.162.782-1.955 0-.793-.26-1.445-.782-1.955zM94.905 18.5v7.429c0 1.28-.374 2.318-1.122 3.111-.737.805-1.757 1.207-3.06 1.207-1.428 0-2.664-.436-3.706-1.309l.969-1.037c.884.533 1.796.799 2.737.799.782 0 1.388-.21 1.819-.629.442-.42.663-1.014.663-1.785v-.782a2.68 2.68 0 01-1.173 1.071 3.624 3.624 0 01-1.547.34c-1.179 0-2.091-.363-2.737-1.088-.646-.725-.97-1.723-.97-2.992V18.5h1.7v4.233c0 1.7.754 2.55 2.262 2.55.77 0 1.377-.244 1.819-.731.442-.499.663-1.213.663-2.142V18.5h1.683z" fill="#D8D8D8"/><g clip-path="url(#clip0_105:99)"><path d="M147.435 5.786a1.04 1.04 0 00-.852-.126c-.143.04-.276.111-.393.208a1.167 1.167 0 00-.286.355l-11.821 21.874-2.088-3.867 6.507-12.049a1.279 1.279 0 00.113-.907 1.241 1.241 0 00-.193-.42 1.159 1.159 0 00-.329-.308 1.07 1.07 0 00-.851-.12 1.097 1.097 0 00-.392.207 1.162 1.162 0 00-.288.35l-5.806 10.735-5.445-9.881.008.003c-2.675-5.723-.201-8.505 1.844-9.58 4.495-2.359 8.649 3.5 8.396 2.906-.899-2.104-2.136-4.27-5.235-4.965-4.858-1.09-7.07 2.525-7.867 4.56-.826 2.109-.934 4.878.496 7.552l.034.073 2.709 4.994-2.395 4.324-5.806-10.734a1.162 1.162 0 00-.288-.351 1.056 1.056 0 00-1.243-.087 1.16 1.16 0 00-.329.308 1.241 1.241 0 00-.221.885c.02.156.068.306.142.442l6.485 12.002-2.131 3.945-11.823-21.877a1.163 1.163 0 00-.288-.351 1.055 1.055 0 00-1.243-.087 1.16 1.16 0 00-.329.308 1.241 1.241 0 00-.221.885c.02.156.068.306.142.442l13.762 25.455 7.085-13.102 5.125 9.503c2.466 5.74-.318 8.404-2.626 9.368-4.536 1.895-9.027-3.649-8.697-3.1 1.306 2.184 3.464 5.037 6.317 5.371 4.935.579 7.071-2.525 7.867-4.56.924-2.36.957-4.191.325-5.747L147.844 7.42a1.239 1.239 0 00.116-.909 1.221 1.221 0 00-.194-.419 1.148 1.148 0 00-.331-.306z" fill="#D8D8D8"/></g><defs><clipPath id="clip0_105:99"><path fill="#fff" transform="translate(106)" d="M0 0h42v41H0z"/></clipPath></defs></svg>