<svg width="239" height="74" fill="none" xmlns="http://www.w3.org/2000/svg"><path fill-rule="evenodd" clip-rule="evenodd" d="M37 74c20.434 0 37-16.566 37-37S57.434 0 37 0 0 16.566 0 37s16.566 37 37 37zM34.24 8.024l.652 13.91-7.808-.659 2.928-12.261 4.229-.99zm0 53.494l-11.06-23.75 3.254-13.854 24.385 1.979v7.257L33.265 34.8l17.554 1.649v5.607l-14.3 2.64 14.3.329v5.278L39.12 53.272l11.7-.66v5.278l-16.58 3.628z" fill="#fff"/><g filter="url(#filter0_d_7:125)" fill="#fff"><path d="M91.232 42.6h8.896c1.259 0 2.368.15 3.328.448.96.299 1.707.661 2.24 1.088.555.427.992.939 1.312 1.536.341.576.565 1.11.672 1.6.107.47.16.939.16 1.408 0 2.219-.917 3.787-2.752 4.704 1.024.256 1.845.853 2.464 1.792.64.917.96 2.005.96 3.264 0 1.963-.661 3.552-1.984 4.768-1.323 1.195-3.509 1.792-6.56 1.792h-8.736V42.6zm5.44 5.12v3.456h4.064c.704 0 1.205-.181 1.504-.544.299-.363.448-.757.448-1.184 0-.427-.149-.821-.448-1.184-.277-.363-.779-.544-1.504-.544h-4.064zm0 8.128v4h4.448c.789 0 1.365-.192 1.728-.576.363-.405.544-.885.544-1.44 0-.533-.192-.992-.576-1.376-.363-.405-.928-.608-1.696-.608h-4.448zm18.156-10.112c2.219-2.24 4.907-3.36 8.064-3.36 3.158 0 5.846 1.12 8.064 3.36 2.24 2.219 3.36 4.907 3.36 8.064s-1.12 5.856-3.36 8.096c-2.218 2.219-4.906 3.328-8.064 3.328-3.157 0-5.845-1.11-8.064-3.328-2.218-2.24-3.328-4.939-3.328-8.096s1.11-5.845 3.328-8.064zm12.32 3.52c-1.13-1.173-2.549-1.76-4.256-1.76-1.706 0-3.125.587-4.256 1.76-1.13 1.152-1.696 2.667-1.696 4.544 0 1.899.566 3.424 1.696 4.576 1.131 1.13 2.55 1.696 4.256 1.696 1.728 0 3.158-.565 4.288-1.696 1.131-1.152 1.696-2.677 1.696-4.576 0-1.877-.576-3.392-1.728-4.544zm13.517-3.52c2.218-2.24 4.906-3.36 8.064-3.36 3.157 0 5.845 1.12 8.064 3.36 2.24 2.219 3.36 4.907 3.36 8.064s-1.12 5.856-3.36 8.096c-2.219 2.219-4.907 3.328-8.064 3.328-3.158 0-5.846-1.11-8.064-3.328-2.219-2.24-3.328-4.939-3.328-8.096s1.109-5.845 3.328-8.064zm12.32 3.52c-1.131-1.173-2.55-1.76-4.256-1.76-1.707 0-3.126.587-4.256 1.76-1.131 1.152-1.696 2.667-1.696 4.544 0 1.899.565 3.424 1.696 4.576 1.13 1.13 2.549 1.696 4.256 1.696 1.728 0 3.157-.565 4.288-1.696 1.13-1.152 1.696-2.677 1.696-4.576 0-1.877-.576-3.392-1.728-4.544zm19.244-6.88h.224c3.029 0 6.005 1.237 8.928 3.712l-3.552 3.264a14.948 14.948 0 00-2.88-1.312c-1.046-.363-1.878-.544-2.496-.544h-.224c-2.112 0-3.168.597-3.168 1.792 0 .277.085.523.256.736.192.192.48.341.864.448.384.107.704.181.96.224.256.043.629.096 1.12.16l1.44.128c1.216.128 2.293.352 3.232.672a9.93 9.93 0 012.624 1.248 5.267 5.267 0 011.824 2.144c.426.875.64 1.899.64 3.072 0 2.155-.832 3.872-2.496 5.152-1.643 1.259-3.798 1.91-6.464 1.952h-.16c-2.091 0-3.968-.405-5.632-1.216-1.664-.832-3.04-1.867-4.128-3.104l3.552-3.264c1.706 1.643 3.776 2.464 6.208 2.464h.16c2.346-.043 3.52-.704 3.52-1.984 0-.384-.096-.704-.288-.96-.171-.256-.47-.459-.896-.608a7.421 7.421 0 00-1.088-.32c-.32-.064-.768-.128-1.344-.192l-1.472-.16c-2.326-.256-4.224-.896-5.696-1.92-1.451-1.024-2.176-2.528-2.176-4.512 0-2.133.8-3.83 2.4-5.088 1.621-1.28 3.69-1.941 6.208-1.984zm23.565 5.344V65h-5.44V47.72h-5.728V42.6h16.896v5.12h-5.728zM91.232 9.6h8.896c1.259 0 2.368.15 3.328.448.96.299 1.707.661 2.24 1.088.555.427.992.939 1.312 1.536.341.576.565 1.11.672 1.6.107.47.16.939.16 1.408 0 2.219-.917 3.787-2.752 4.704 1.024.256 1.845.853 2.464 1.792.64.917.96 2.005.96 3.264 0 1.963-.661 3.552-1.984 4.768-1.323 1.195-3.509 1.792-6.56 1.792h-8.736V9.6zm5.44 5.12v3.456h4.064c.704 0 1.205-.181 1.504-.544.299-.363.448-.757.448-1.184 0-.427-.149-.821-.448-1.184-.277-.363-.779-.544-1.504-.544h-4.064zm0 8.128v4h4.448c.789 0 1.365-.192 1.728-.576.363-.405.544-.885.544-1.44 0-.533-.192-.992-.576-1.376-.363-.405-.928-.608-1.696-.608h-4.448zm21.516-4.64h9.024v5.152h-9.024v3.488h9.888V32h-15.328V9.6h15.328v5.12h-9.888v3.488zm21.596-8.832h.224c3.029 0 6.005 1.237 8.928 3.712l-3.552 3.264a14.948 14.948 0 00-2.88-1.312c-1.046-.363-1.878-.544-2.496-.544h-.224c-2.112 0-3.168.597-3.168 1.792 0 .277.085.523.256.736.192.192.48.341.864.448.384.107.704.181.96.224.256.043.629.096 1.12.16l1.44.128c1.216.128 2.293.352 3.232.672a9.93 9.93 0 012.624 1.248 5.267 5.267 0 011.824 2.144c.426.875.64 1.899.64 3.072 0 2.155-.832 3.872-2.496 5.152-1.643 1.259-3.798 1.91-6.464 1.952h-.16c-2.091 0-3.968-.405-5.632-1.216-1.664-.832-3.04-1.867-4.128-3.104l3.552-3.264c1.706 1.643 3.776 2.464 6.208 2.464h.16c2.346-.043 3.52-.704 3.52-1.984 0-.384-.096-.704-.288-.96-.171-.256-.47-.459-.896-.608a7.421 7.421 0 00-1.088-.32c-.32-.064-.768-.128-1.344-.192l-1.472-.16c-2.326-.256-4.224-.896-5.696-1.92-1.451-1.024-2.176-2.528-2.176-4.512 0-2.133.8-3.83 2.4-5.088 1.621-1.28 3.69-1.941 6.208-1.984zm23.245 5.344V32h-5.44V14.72h-5.728V9.6h16.896v5.12h-5.728z"/></g><defs><filter id="filter0_d_7:125" x="87.232" y="7.376" width="118.29" height="63.848" filterUnits="userSpaceOnUse" color-interpolation-filters="sRGB"><feFlood flood-opacity="0" result="BackgroundImageFix"/><feColorMatrix in="SourceAlpha" values="0 0 0 0 0 0 0 0 0 0 0 0 0 0 0 0 0 0 127 0" result="hardAlpha"/><feOffset dy="2"/><feGaussianBlur stdDeviation="2"/><feColorMatrix values="0 0 0 0 0.475 0 0 0 0 0.475 0 0 0 0 0.475 0 0 0 0.31 0"/><feBlend in2="BackgroundImageFix" result="effect1_dropShadow_7:125"/><feBlend in="SourceGraphic" in2="effect1_dropShadow_7:125" result="shape"/></filter></defs></svg>