<svg width="201" height="168" fill="none" xmlns="http://www.w3.org/2000/svg"><path fill-rule="evenodd" clip-rule="evenodd" d="M26.475 167.998c5.512-25.272 25.394-45.1 50.695-50.364 6.64 4.257 14.473 6.641 22.986 6.641s16.346-2.384 22.986-6.471c25.301 5.095 45.184 25.092 50.695 50.196 16.438-17.843 26.477-41.671 26.477-67.843C200.314 44.842 155.472 0 100.157 0S0 44.842 0 100.157c0 26.172 10.038 49.999 26.475 67.841zm73.681-51.896c21.816 0 39.502-17.686 39.502-39.502 0-21.816-17.686-39.502-39.502-39.502-21.816 0-39.502 17.686-39.502 39.502 0 21.816 17.686 39.502 39.502 39.502z" fill="#503BD9"/></svg>